<svg width="512" height="512" viewBox="0 0 512 512" fill="none" xmlns="http://www.w3.org/2000/svg">
<rect width="512" height="512" fill="white"/>
<path d="M256.064 373.916C167.596 373.916 95.2129 301.533 95.2129 213.064C95.2129 124.596 167.596 52.2129 256.064 52.2129C344.533 52.2129 416.916 124.596 416.916 213.064C416.916 301.533 344.533 373.916 256.064 373.916ZM256.064 12C145.479 12 55 102.479 55 213.064C55 323.65 145.479 414.129 256.064 414.129C366.65 414.129 457.129 323.65 457.129 213.064C457.129 102.479 366.65 12 256.064 12Z" fill="#F26827"/>
<path d="M276.864 254.663H236.651V314.982H176.332V214.45H136.119L256.758 113.918L377.396 214.45H337.184V314.982H276.864V254.663Z" fill="#283C5D"/>
<rect x="175.639" y="305.277" width="162.238" height="18.7198" fill="#F26827"/>
<circle cx="310.837" cy="151.358" r="20.7998" fill="#283C5D" stroke="#F26827" stroke-width="12.4799"/>
<path d="M101 479.395V448.737H113.664C115.96 448.737 117.94 449.186 119.607 450.084C121.284 450.972 122.576 452.215 123.484 453.812C124.392 455.398 124.846 457.245 124.846 459.35C124.846 461.466 124.382 463.317 123.454 464.904C122.536 466.481 121.224 467.703 119.517 468.572C117.811 469.44 115.785 469.874 113.44 469.874H105.626V464.036H112.062C113.18 464.036 114.113 463.841 114.862 463.452C115.62 463.063 116.194 462.519 116.583 461.82C116.972 461.112 117.167 460.288 117.167 459.35C117.167 458.402 116.972 457.584 116.583 456.895C116.194 456.197 115.62 455.658 114.862 455.279C114.103 454.899 113.17 454.71 112.062 454.71H108.41V479.395H101ZM135.909 448.737V479.395H128.499V448.737H135.909ZM166.653 448.737V479.395H160.365L148.165 461.701H147.971V479.395H140.561V448.737H146.938L159.003 466.401H159.258V448.737H166.653ZM170.309 454.755V448.737H196.221V454.755H186.925V479.395H179.62V454.755H170.309ZM218.387 448.737H225.782V468.512C225.782 470.797 225.238 472.788 224.151 474.485C223.063 476.171 221.546 477.478 219.6 478.407C217.654 479.325 215.393 479.784 212.819 479.784C210.214 479.784 207.939 479.325 205.993 478.407C204.046 477.478 202.535 476.171 201.457 474.485C200.379 472.788 199.84 470.797 199.84 468.512V448.737H207.25V467.868C207.25 468.926 207.479 469.869 207.939 470.697C208.408 471.526 209.061 472.174 209.9 472.643C210.738 473.112 211.711 473.347 212.819 473.347C213.926 473.347 214.894 473.112 215.723 472.643C216.561 472.174 217.215 471.526 217.684 470.697C218.153 469.869 218.387 468.926 218.387 467.868V448.737ZM239.483 479.395V448.737H252.267C254.562 448.737 256.484 449.061 258.03 449.71C259.587 450.359 260.755 451.267 261.533 452.434C262.322 453.602 262.716 454.954 262.716 456.491C262.716 457.659 262.471 458.702 261.982 459.62C261.493 460.528 260.82 461.281 259.961 461.88C259.103 462.479 258.11 462.898 256.982 463.138V463.437C258.22 463.497 259.363 463.831 260.411 464.44C261.468 465.049 262.317 465.897 262.955 466.985C263.594 468.063 263.913 469.34 263.913 470.817C263.913 472.464 263.494 473.936 262.656 475.233C261.818 476.52 260.605 477.538 259.018 478.287C257.432 479.025 255.505 479.395 253.24 479.395H239.483ZM246.893 473.422H251.474C253.08 473.422 254.263 473.117 255.021 472.509C255.79 471.9 256.174 471.052 256.174 469.964C256.174 469.175 255.99 468.497 255.62 467.928C255.251 467.349 254.727 466.905 254.048 466.596C253.37 466.276 252.556 466.117 251.608 466.117H246.893V473.422ZM246.893 461.341H250.995C251.803 461.341 252.522 461.207 253.15 460.937C253.779 460.668 254.268 460.278 254.617 459.769C254.977 459.261 255.156 458.647 255.156 457.928C255.156 456.9 254.792 456.092 254.063 455.503C253.335 454.914 252.352 454.62 251.114 454.62H246.893V461.341ZM267.476 479.395V448.737H288.853V454.755H274.886V461.042H287.76V467.075H274.886V473.377H288.853V479.395H267.476ZM293.493 479.395V448.737H306.157C308.453 448.737 310.434 449.151 312.1 449.979C313.777 450.798 315.069 451.975 315.977 453.512C316.886 455.039 317.34 456.85 317.34 458.946C317.34 461.072 316.876 462.878 315.947 464.365C315.019 465.842 313.702 466.97 311.996 467.748C310.289 468.517 308.268 468.901 305.933 468.901H297.924V463.063H304.556C305.673 463.063 306.606 462.918 307.355 462.629C308.113 462.329 308.687 461.88 309.076 461.281C309.466 460.673 309.66 459.894 309.66 458.946C309.66 457.998 309.466 457.215 309.076 456.596C308.687 455.967 308.113 455.498 307.355 455.189C306.597 454.869 305.663 454.71 304.556 454.71H300.903V479.395H293.493ZM310.753 465.383L318.388 479.395H310.304L302.819 465.383H310.753ZM321.404 479.395V448.737H328.814V461.701H329.218L339.352 448.737H348.08L337.212 462.419L348.274 479.395H339.412L331.778 467.344L328.814 471.086V479.395H321.404ZM357.634 479.395H349.67L360.014 448.737H369.879L380.223 479.395H372.259L365.059 456.461H364.819L357.634 479.395ZM356.571 467.329H373.217V472.958H356.571V467.329ZM383.524 479.395V448.737H390.934V461.042H403.014V448.737H410.409V479.395H403.014V467.075H390.934V479.395H383.524Z" fill="#F26827"/>
<rect x="227.639" y="323.996" width="8.31991" height="58.2394" transform="rotate(-90 227.639 323.996)" fill="#283C5D"/>
<rect x="223.479" y="332.316" width="8.31991" height="66.5593" transform="rotate(-90 223.479 332.316)" fill="#283C5D"/>
<rect x="231.799" y="315.676" width="6.23993" height="49.9195" transform="rotate(-90 231.799 315.676)" fill="#283C5D"/>
</svg>
